<svg xmlns="http://www.w3.org/2000/svg" xmlns:xlink="http://www.w3.org/1999/xlink" version="1.1" width="595.2756pt" height="841.8898pt" viewBox="0 0 595.2756 841.8898">
<path transform="matrix(1,0,0,-1,0,841.8898)" d="M459.6358 285.1798C460.5769 283.8319 461.3187 282.5529 461.8587 281.3409L480.854 295.89C480.7179 283.494 474.1858 270.4289 461.2527 256.6879 460.8488 258.0318 460.3088 259.583 459.6358 261.3348 458.424 263.7601 456.4029 267.1948 453.5728 271.641 450.7438 276.0868 448.7238 279.5879 447.5117 282.149 444.1428 288.7481 443.0659 295.0118 444.2788 300.9419L445.288 300.74C446.2299 298.7189 448.386 296.159 451.7549 293.061 455.7971 289.2881 458.4237 286.6609 459.6358 285.1798ZM476.6111 263.558C478.764 265.1749 479.7748 265.9827 479.6419 265.9827 480.5819 257.224 477.8889 249.6138 471.5589 243.1488 470.4789 242.204 466.5067 238.4308 459.6358 231.8318 457.4801 229.8121 455.3929 227.992 453.3707 226.3759 453.1 229.4739 450.2707 236.884 444.8849 248.6049 440.7069 257.4958 440.3027 265.4427 443.6719 272.4489H444.2791L459.2319 249.211C459.2319 249.3431 459.3637 249.4789 459.6358 249.6138 467.7191 257.5619 473.3768 262.2098 476.6111 263.558ZM459.6358 315.0867C459.6358 314.9518 459.7688 314.816 460.0397 314.6828 460.3088 314.4118 460.5109 314.21 460.6469 314.077L472.3668 333.2738 473.1749 333.4771 473.3768 333.2738C477.8229 319.8022 474.5208 305.2519 463.4759 289.626 462.5311 291.1071 461.2527 292.8589 459.6358 294.88 458.1527 296.6289 456.0647 298.8519 453.3707 301.5479 450.1389 304.7822 448.0478 306.8688 447.1078 307.813 442.258 313.0671 439.2927 318.0489 438.2158 322.7669 437.8119 324.2469 437.5397 325.728 437.4068 327.2119 437.8119 327.2122 438.0797 327.1428 438.2158 327.0098 439.1561 326.874 442.8638 325.258 449.3299 322.16 450.6749 321.3519 454.1108 318.9929 459.6358 315.0867ZM448.7238 217.889C451.4168 220.9859 455.0547 223.613 459.6358 225.7699 459.364 225.6338 463.2038 227.3159 471.1547 230.8209 470.0738 221.9309 466.7757 214.99 461.2527 210.0078 460.982 209.8721 460.7127 209.67 460.4448 209.4009 460.04 209.13 459.7688 208.9278 459.6358 208.7949 458.424 208.1188 455.1208 206.4368 449.7347 203.743 445.6928 201.7227 442.6608 199.7019 440.6409 197.6808 439.8318 199.1619 439.0248 201.047 438.2158 203.3388 432.286 218.2929 431.6797 231.09 436.3977 241.7329 437.3379 242.8109 437.9448 243.6188 438.2158 244.158 438.2158 244.2909 438.2158 244.427 438.2158 244.563L438.8219 244.7649 439.2269 244.563C439.2269 242.0019 442.3898 233.1099 448.7238 217.889ZM438.2158 348.0262 450.3407 344.1869C450.6089 347.4198 453.7057 355.7049 459.6358 369.042L459.8379 368.638C467.3809 350.047 467.3149 334.5528 459.6358 322.16 459.364 321.889 459.1619 321.6869 459.0298 321.554 457.818 322.2269 455.7268 323.5048 452.7658 325.3938 449.9368 327.1431 447.7799 328.424 446.2988 329.2328 446.972 328.8291 444.2788 331.3199 438.2158 336.71 437.6758 337.1142 436.8668 337.72 435.7908 338.5278 432.6911 341.894 429.7949 346.2069 427.1017 351.4618ZM462.0611 198.2869C462.7338 198.6911 463.4759 198.824 464.2829 198.6908 463.072 195.9951 461.5209 193.57 459.6358 191.4168 455.459 186.8349 448.3199 182.3899 438.2158 178.079 437.9451 177.9429 437.5397 177.808 437.0029 177.6759 436.464 177.404 436.0598 177.2719 435.7908 177.2719 429.9968 176.059 426.0909 174.509 424.0709 172.6228 425.9551 176.798 425.6169 184.4099 423.0609 195.4579 420.768 205.4259 421.5759 212.7679 425.4857 217.4839 426.022 218.2929 426.6969 219.0308 427.5057 219.7069L427.506 219.3029 437.205 192.0229C437.7419 192.4271 438.0797 192.6289 438.2158 192.6289 443.4698 195.5908 450.6089 197.479 459.6358 198.2869 460.713 198.2869 461.5209 198.2869 462.0611 198.2869ZM420.8369 370.8598C427.1681 370.457 432.3557 369.3098 436.3977 367.4248 435.9929 373.756 436.5998 379.3479 438.2158 384.198 439.4288 387.968 441.1777 390.8659 443.4698 392.887 450.07 380.8947 450.9468 366.8187 446.0967 350.6528 444.2091 351.5939 441.5817 352.6739 438.2158 353.886 429.0531 356.9831 423.2619 359.2069 420.8369 360.5547 416.2558 363.1119 412.6847 366.482 410.1267 370.6588 414.3019 370.927 417.8718 370.993 420.8369 370.8598ZM420.8369 165.9549C424.7427 166.896 430.5368 167.8399 438.2158 168.7839 441.9859 169.321 443.7388 169.5229 443.4698 169.3908 442.1211 166.693 440.3687 164.2689 438.2158 162.1148 434.1739 158.074 428.3807 154.7719 420.8369 152.214 418.1411 151.27 414.3708 150.26 409.521 149.1829 407.6331 149.0471 405.6129 148.845 403.4588 148.576 401.034 148.172 399.1459 147.8339 397.8009 147.566 399.6859 151.2028 401.5709 157.8719 403.4588 167.5709 405.8838 179.8291 409.9249 188.1139 415.5829 192.4268L415.785 192.0229C415.65 190.135 416.1197 185.6228 417.1997 178.4829 417.8718 172.8249 417.6697 168.2439 416.5937 164.742 417.67 165.1467 419.0848 165.551 420.8369 165.9549ZM417.8058 391.4722C417.403 400.9 418.4118 408.7148 420.8369 414.913 421.7791 417.3381 422.9898 419.561 424.4749 421.5818H424.8791C431.2091 407.973 433.1639 393.0888 430.7389 376.9228 430.4679 377.46 430.6039 376.3159 431.1439 373.4878 428.9868 374.7002 425.5517 375.7768 420.8369 376.721 420.2969 376.854 419.4887 377.0558 418.4118 377.3268 417.2 377.46 416.3219 377.5949 415.7847 377.731 411.2039 378.6721 407.0959 380.6269 403.4588 383.5908 400.2259 385.88 397.0587 389.3159 393.9608 393.8978L392.9508 396.1202 403.4591 394.1002ZM394.365 416.732C391.1321 424.679 388.3028 430.1348 385.8778 433.0998 385.202 433.9091 384.7978 434.3788 384.666 434.5149L385.272 434.717C385.272 434.85 385.4738 434.85 385.8778 434.717 392.7489 432.8291 398.6087 429.7309 403.4588 425.4208 406.5559 422.5921 409.1839 419.3589 411.3397 415.7218 413.0889 411.0041 413.9668 404.9419 413.9668 397.535 411.2711 397.535 407.7689 399.4858 403.4588 403.3947 401.5709 405.2801 400.2919 406.4258 399.6187 406.8298 398.8111 408.043 397.8669 409.7259 396.7897 411.882 395.5779 414.4402 394.7698 416.056 394.365 416.732ZM403.4591 142.3128C413.4271 140.9638 419.2209 140.3578 420.8369 140.493 421.1059 140.493 421.3077 140.493 421.4438 140.493 421.4441 139.953 421.2408 139.3478 420.8369 138.6748 420.4341 137.8658 418.1409 135.9147 413.9668 132.8148 410.866 130.93 407.3638 129.7168 403.4588 129.1768 400.2259 128.7729 394.3647 128.9078 385.8778 129.581 380.624 130.121 376.5818 130.2568 373.7537 129.9849 375.2351 132.8151 377.1187 138.2709 379.4108 146.3539 381.5651 153.7608 383.7217 159.1498 385.8778 162.5199 388.031 165.886 390.7278 168.5129 393.9608 170.3999 394.634 170.5329 395.4427 170.805 396.3858 171.2089 397.1951 171.6129 397.9338 171.8158 398.6087 171.8158 396.8569 169.3911 395.7797 164.8089 395.3758 158.074 394.8358 151.2028 393.6229 146.3539 391.7387 143.5238 391.6029 142.9838 391.6029 142.4438 391.7387 141.908 394.9719 142.8489 398.8769 142.9838 403.4591 142.3128ZM387.8989 118.8709C394.634 118.334 397.9338 118.063 397.8009 118.063 395.5079 114.1569 391.5357 111.3279 385.8778 109.5749L382.2401 108.7679C378.468 108.231 370.3847 109.51 357.9908 112.6069 353.95 113.6869 350.4458 114.2929 347.4839 114.4259 348.4247 116.5819 350.1108 120.3559 352.5347 125.7418 354.689 130.5918 356.5077 134.365 357.9908 137.058 362.8409 145.9488 368.9039 152.0118 376.1787 155.2448L376.3811 155.0429C373.82 152.3469 372.2029 147.3639 371.5308 140.089 370.7229 132.6818 369.2387 127.6299 367.0849 124.9339 366.9491 124.5288 366.8828 124.1938 366.8828 123.9228 372.1371 123.3867 378.4677 121.902 385.8778 119.4778 387.091 119.073 387.7628 118.8709 387.8989 118.8709ZM340.007 110.7879C344.181 110.6549 350.1768 108.4989 357.9908 104.3209 362.166 102.0319 365.6699 100.552 368.4988 99.8759 365.6699 97.723 362.166 96.2379 357.9908 95.4309 352.3331 94.085 346.8767 94.085 341.6227 95.4309 339.467 95.97 336.0977 97.723 331.5197 100.6849 327.746 103.1088 324.3767 104.3209 321.4159 104.3209 302.9567 98.9348 293.7977 96.3079 293.9338 96.4409 295.8191 95.0958 300.0617 93.6108 306.6639 91.9947 312.5911 90.5139 316.6977 88.6949 318.9898 86.5389L314.949 78.8598C314.814 78.728 314.0719 78.323 312.7269 77.648 310.974 78.323 305.1139 81.2849 295.1459 86.5389 287.8707 90.4479 281.7388 92.469 276.7569 92.6019 273.388 90.8518 268.4027 88.56 261.8039 85.7307 254.7969 82.633 249.8808 80.3438 247.0518 78.8598 245.1628 79.668 243.2789 82.7688 241.3939 88.1549V89.57L266.4507 97.4509C258.7728 102.0319 250.1498 104.3209 240.5849 104.3209 227.5169 96.7779 215.3917 94.6219 204.2118 97.8559 200.9789 98.9348 198.0139 100.4159 195.3207 102.3009 193.972 103.5139 192.7599 104.2549 191.6827 104.5239 195.321 104.1188 199.4939 104.5239 204.2118 105.736 206.5008 106.412 210.0019 107.555 214.7199 109.1718 219.1649 110.7879 222.6668 111.9348 225.2279 112.6069 218.0849 124.4631 214.1138 133.4208 213.3048 139.483 212.6288 140.0199 212.2948 140.762 212.2948 141.7059 212.4269 141.7059 212.5627 141.7728 212.6979 141.908 218.8939 139.8869 224.8228 135.1729 230.4819 127.7629 238.0249 118.063 243.0757 112.1369 245.6368 109.98 270.8269 97.8559 296.4898 98.8648 322.6277 113.0108 333.809 129.045 343.3717 138.2709 351.3229 140.6948 348.4939 129.9189 347.0097 123.6538 346.8767 121.902 342.8359 115.8398 340.4778 112.54 339.8049 112.0008 339.8051 111.3279 339.8709 110.9239 340.007 110.7879ZM216.7398 116.4458C215.2559 116.0419 213.1688 115.3689 210.4758 114.4259 207.3747 113.4839 205.2879 112.8779 204.2118 112.6069 193.163 109.241 184.5408 109.51 178.3457 113.4147 177.537 113.955 176.9967 114.359 176.7297 114.628 172.821 117.053 169.5209 119.4778 166.8268 121.902 169.9248 120.8248 173.7649 120.6238 178.3457 121.2959 181.175 121.6998 187.0347 123.3159 195.9267 126.146 195.251 128.1668 194.4428 132.95 193.5009 140.493 192.8259 146.4199 191.4809 151.0668 189.4598 154.4369H189.864C195.5228 152.4161 200.3029 148.3739 204.2118 142.3128 206.0969 139.3478 208.2529 135.1069 210.6777 129.581 213.7759 122.711 215.7959 118.334 216.7398 116.4458ZM162.18 403.1929C160.5628 402.249 158.4057 401.2379 155.7128 400.1618 155.3088 400.026 154.2988 399.6218 152.6817 398.9489 152.5459 403.259 153.5567 408.043 155.7128 413.297 157.3299 417.471 159.3507 421.1079 161.7758 424.209L162.18 424.6129C169.723 430.808 175.1128 434.3788 178.3457 435.3228 179.0189 435.456 180.0289 435.6578 181.3768 435.9288 180.2968 433.3691 179.2857 430.473 178.3457 427.2398 175.9209 420.2331 173.8298 415.317 172.0809 412.488 170.0609 408.7151 166.7577 405.618 162.18 403.1929ZM189.864 133.0169C186.0908 131.94 182.2507 131.4 178.3457 131.4 172.821 131.4 167.4337 132.1418 162.1797 133.6229 159.755 134.299 157.5978 135.0369 155.7128 135.8459 149.9187 138.138 145.0029 141.1659 140.9618 144.94 142.9829 144.94 147.8988 145.8139 155.7128 147.566 158.0017 148.1029 160.1589 148.5068 162.1797 148.7778 164.6048 149.0471 166.8268 149.0468 168.8477 148.7778 168.9809 159.4191 167.7019 168.0418 165.0087 174.6448 170.263 172.22 174.7077 167.976 178.3457 161.913 180.2307 158.5449 182.2507 153.8969 184.4079 147.9699 187.5059 139.212 189.3237 134.229 189.864 133.0169ZM155.7128 382.1771C153.5567 381.5011 150.5917 380.8947 146.8219 380.3579 141.7 379.55 138.7389 379.076 137.9307 378.9439 134.5618 386.4869 134.0909 394.706 136.5157 403.5969 136.2438 402.6529 139.2089 410.5338 145.4068 427.2398V426.634C149.0448 414.3742 150.1209 403.5969 148.6409 394.3009L155.7128 396.5238 162.18 398.5449 171.8787 401.3742C171.8787 396.3889 169.1158 391.271 163.5939 386.0158 163.19 385.6119 162.7157 385.274 162.1797 385.0058 160.291 383.794 158.1378 382.8498 155.7128 382.1771ZM155.7128 153.426C146.5498 153.023 139.9507 154.3008 135.9088 157.2659 133.7528 158.7458 131.5307 160.9699 129.2409 163.9349 124.9277 169.321 121.7648 172.69 119.7428 174.0379L129.2409 172.22 143.1848 169.795 146.2158 198.489H147.0237C150.7938 195.5239 153.6928 191.0129 155.7128 184.9499 156.655 181.8499 157.7339 176.9998 158.9468 170.3999 160.1589 163.6631 161.2358 158.7458 162.1797 155.649 162.3129 155.514 162.3818 155.2448 162.3818 154.8408 162.5148 154.4369 162.6508 154.1648 162.7858 154.0318H162.18C159.755 153.7608 157.5978 153.559 155.7128 153.426ZM129.2409 362.7771C126.6809 362.238 124.5237 361.4958 122.7747 360.5547 117.9249 367.6941 117.7889 377.2579 122.3697 389.2499 123.0429 390.5949 123.7158 392.6149 124.3919 395.312 125.0637 398.0049 125.7369 399.96 126.4119 401.1718L126.6137 400.7679C126.7469 398.4761 127.6237 395.1099 129.2409 390.6638 130.182 388.2387 130.8577 386.0158 131.2617 383.9958 131.7988 380.4911 132.0707 377.3268 132.0707 374.4978 136.7838 374.4981 144.6647 375.1699 155.7128 376.5189 156.386 376.651 157.3968 376.7868 158.7438 376.9228 158.0689 375.1702 157.0589 373.4878 155.7128 371.8709 152.208 367.4251 147.6298 364.8648 141.9718 364.1919 132.1367 362.9801 127.8927 362.5058 129.2409 362.7771ZM108.2259 330.6478C107.5499 331.3202 106.8769 332.062 106.2037 332.8699 102.4319 337.9878 100.8808 344.5909 101.5569 352.6739 102.3647 356.8479 103.9119 362.1019 106.2037 368.4359 107.5499 371.9378 108.6287 374.766 109.4377 376.9228L109.842 376.3162C110.111 374.8331 111.3219 370.993 113.4797 364.7979 115.096 359.9478 115.7017 355.9068 115.2978 352.6739 114.7578 352.6739 119.4058 353.9529 129.2409 356.5128 133.1467 357.59 136.5157 358.13 139.3449 358.13 138.2649 352.2002 134.8997 347.218 129.2409 343.1758 128.8369 342.9051 128.5659 342.703 128.4327 342.5698 127.0848 341.6258 123.5137 339.874 117.7228 337.316 113.2778 335.4279 110.1107 333.2049 108.2259 330.6478ZM135.5057 178.4829C134.8299 178.888 133.8197 179.358 132.4749 179.8988 130.9898 180.4348 129.9138 180.8388 129.2409 181.1098 118.0579 185.557 110.3788 190.0018 106.2037 194.4479 104.4519 196.469 102.9019 198.758 101.5569 201.318 100.4769 202.5309 99.87 203.3388 99.7384 203.743 102.9708 203.472 105.1237 203.203 106.2037 202.9348 114.8238 201.7227 121.4269 199.9698 126.0077 197.6808L129.2409 208.19 133.8888 223.3449H134.2928C138.6028 217.819 140.4887 210.816 139.9507 202.3288 139.8158 198.0159 138.4668 190.4729 135.9088 179.6958 135.6378 179.2919 135.5057 178.888 135.5057 178.4829ZM106.204 211.6239C105.124 212.4329 104.0477 213.3079 102.9708 214.251 98.3897 219.369 94.8183 228.261 92.2609 240.9259 95.2228 237.1518 99.87 233.3129 106.2037 229.407 108.8977 227.6541 111.3219 226.0378 113.4797 224.5578 113.747 225.2299 116.7789 230.2809 122.5718 239.7129 123.1098 240.654 123.7158 242.068 124.3919 243.9558 125.0637 245.9781 125.6037 247.392 126.0077 248.1999L126.4119 247.998C130.722 236.41 129.4438 222.334 122.5718 205.7638 116.2389 206.572 110.7819 208.5239 106.204 211.6239ZM103.1729 294.6779C94.5499 301.2769 90.7109 309.496 91.6551 319.3308 92.9999 328.7591 93.9444 334.7549 94.4844 337.316L104.7898 319.3311C105.4619 320.2719 105.9327 320.8788 106.2037 321.1498 110.7819 326.268 118.4618 330.7799 129.2409 334.6889 129.3738 334.6889 129.5099 334.7549 129.6459 334.891 129.5099 334.62 129.3738 334.0828 129.2409 333.2738 127.2209 325.9998 121.6287 317.7139 112.4688 308.4188 109.9077 305.7231 107.8217 303.232 106.2037 300.9419 104.8569 298.7858 103.8458 296.699 103.1729 294.6779ZM104.5877 259.5169C91.6554 271.641 85.6593 284.8428 86.6027 299.124 86.8711 299.5271 87.0069 299.9979 87.0069 300.5379 87.1398 301.2111 87.2753 301.6809 87.4111 301.953 88.7559 299.7961 91.4533 296.699 95.4941 292.6568 99.4005 288.8838 102.0937 285.584 103.5768 282.7548 104.2498 284.6409 105.1237 286.4588 106.2037 288.212 106.7409 289.152 111.3888 295.149 120.1479 306.1959 120.1479 306.733 120.2808 307.0709 120.5518 307.207L120.7539 307.004C122.2347 292.8589 117.3847 277.77 106.2037 261.739 105.664 260.9308 105.1237 260.189 104.5877 259.5169ZM106.204 235.47C105.3969 236.2771 103.8458 237.8948 101.5569 240.319 99.5363 242.204 97.7831 243.7549 96.3028 244.967 89.8362 251.4339 86.4669 260.2548 86.1993 271.4389L105.1948 251.2318C105.7309 251.9039 106.0688 252.3739 106.2037 252.646 116.3089 266.6548 121.6287 274.2678 122.1678 275.4808L122.5718 275.4811C125.1298 265.2409 120.9557 250.96 110.0438 232.6408 108.6959 233.4478 107.4169 234.3898 106.204 235.47" fill="#231f20" fill-rule="evenodd"/>
<path transform="matrix(1,0,0,-1,0,841.8898)" d="M295.9971 226.097H285.6027V214.1921H297.1409L296.6839 211.17H282.2148V242.2599H296.5V239.2379H285.6027V229.119H295.9971Z" fill="#231f20" fill-rule="evenodd"/>
<path transform="matrix(1,0,0,-1,0,841.8898)" d="M300.9399 242.2599H304.374V214.1921H315.4538L314.9969 211.17H300.9399Z" fill="#231f20" fill-rule="evenodd"/>
<path transform="matrix(1,0,0,-1,0,841.8898)" d="M332.4368 226.097H322.0438V214.1921H333.582L333.1247 211.17H318.6558V242.2599H332.9408V239.2379H322.0438V229.119H332.4368Z" fill="#231f20" fill-rule="evenodd"/>
<path transform="matrix(1,0,0,-1,0,841.8898)" d="M337.3809 242.2599H340.7689V226.921C343.0131 230.0808 348.0489 237.6808 351.2537 242.2599H355.1919L346.2627 229.6689 355.4209 211.17H351.574L343.974 226.83 340.7689 222.571V211.17H337.3809Z" fill="#231f20" fill-rule="evenodd"/>
<path transform="matrix(1,0,0,-1,0,841.8898)" d="M363.6598 239.2379H356.7458V242.2599H374.0071V239.2379H367.0931V211.17H363.6598Z" fill="#231f20" fill-rule="evenodd"/>
<path transform="matrix(1,0,0,-1,0,841.8898)" d="M380.7808 228.3868H384.719C388.5191 228.3868 389.9387 230.5378 389.9387 234.1559 389.939 237.2689 388.5188 239.3748 385.0858 239.3748L380.7808 239.3751ZM380.7808 225.502V211.17H377.3469V242.2599H385.4979C390.7179 242.2599 393.4179 239.33 393.4179 234.2469 393.4179 229.5768 391.1749 227.6079 389.2518 226.967 392.1358 225.959 393.0528 223.3959 393.0528 219.0458L393.0531 217.8091C393.0531 214.9248 393.1438 212.864 393.5098 211.1698L390.0759 211.17C389.664 212.5899 389.6178 215.337 389.6178 217.9009V218.954C389.6178 223.35 388.7478 225.502 384.5358 225.502Z" fill="#231f20" fill-rule="evenodd"/>
<path transform="matrix(1,0,0,-1,0,841.8898)" d="M400.9711 227.0129C400.9711 218.13 402.7558 213.6878 406.6478 213.6878 410.586 213.6881 412.2337 218.0378 412.2337 226.967 412.234 235.9871 410.4479 239.7419 406.6027 239.7419 402.802 239.7419 400.9708 235.4828 400.9711 227.0129ZM415.7589 227.0129C415.7589 216.39 413.2409 210.712 406.5097 210.712 400.1009 210.712 397.4448 216.2069 397.4448 226.921 397.4451 237.5439 400.5578 242.718 406.6937 242.718 413.104 242.718 415.7589 237.5439 415.7589 227.0129" fill="#231f20" fill-rule="evenodd"/>
<path transform="matrix(1,0,0,-1,0,841.8898)" d="M145.9057 304.6518C150.6359 314.886 157.4297 328.8178 158.8918 331.6558 160.8698 333.29 165.3418 331.6558 165.2559 328.4739 163.7079 326.1521 159.3218 316.1758 154.1619 304.8239 160.4398 304.738 168.7808 304.4809 174.8877 304.395 179.6168 314.714 187.1858 330.7958 188.5618 333.4618 189.5068 335.3542 194.7529 331.6558 195.0968 329.1619 193.6349 326.7539 188.9059 316.0899 183.4877 304.2218 184.9487 303.3621 184.0028 300.439 181.9397 300.9549 177.3819 291.151 170.7599 276.4449 171.6188 274.4668 170.3288 272.8329 163.7938 275.0689 163.7938 277.907 163.7938 280.8309 169.8137 293.3008 173.5118 301.2979 167.0618 301.47 158.4618 301.3838 152.5277 301.2979 148.0558 291.6669 140.0579 272.0599 140.8317 269.9949 139.1128 268.791 133.9517 270.167 133.9517 273.005 133.9517 276.1019 140.6597 292.4408 144.2718 300.7828 139.8858 300.3531 136.3609 299.579 135.4139 298.6319 134.6397 298.7181 134.2097 301.557 136.0157 302.5879 137.3919 303.448 141.5197 304.3089 145.9057 304.6518" fill="#231f20" fill-rule="evenodd"/>
<path transform="matrix(1,0,0,-1,0,841.8898)" d="M213.7589 301.8149C214.1028 303.6209 216.4249 307.749 215.0487 308.952 213.5869 310.1559 205.5027 305.6848 200.0849 298.546 192.0869 287.9688 190.8839 282.0348 192.0008 281.6909 194.0658 281.003 207.5678 296.0529 210.8347 301.9859 211.265 302.76 212.4689 302.5029 213.7589 301.8149ZM215.049 300.9549C216.8549 299.579 218.3179 297.6009 217.6288 296.7409 216.3387 295.0211 215.5657 293.8158 213.6728 289.5168 211.4368 284.3569 210.4909 281.2609 212.2109 281.433 215.049 281.6909 226.9168 295.6229 228.9807 299.0628 230.099 300.6961 232.3349 300.0078 231.2167 298.031 229.2389 294.247 221.1557 282.551 216.1667 279.1108 211.953 276.188 207.6537 278.6808 205.2448 281.0889 203.6968 282.6369 204.4709 287.4529 206.0198 290.6348 203.6117 287.0229 198.4507 279.7988 193.9799 277.4778 191.6569 276.2739 184.9487 280.4868 184.4337 283.4969 183.7449 287.4529 187.2717 296.225 193.3767 303.0188 199.7408 310.07 204.7297 312.1339 208.6849 312.9939 213.1569 313.941 222.4449 307.5758 221.2407 304.6518 220.3809 302.6738 216.9408 301.212 215.049 300.9549" fill="#231f20" fill-rule="evenodd"/>
<path transform="matrix(1,0,0,-1,0,841.8898)" d="M244.9769 308.264C247.7288 308.0061 251.5127 305.426 248.6747 301.8149 244.3748 296.1391 238.6987 282.4648 240.7629 281.6909 242.913 280.9171 254.8658 294.8488 257.7898 299.3199 259.1668 301.0411 260.6287 300.0937 260.0269 298.2889 257.963 293.6449 249.7929 283.2389 244.6328 279.2829 241.1067 276.6169 233.5388 279.0249 232.8508 284.0128 231.734 290.4619 238.6137 300.869 240.4188 304.1359 241.2788 305.598 239.5587 306.0278 237.4089 306.373 235.603 303.105 231.2167 297.4289 228.2068 293.0428 226.9168 291.3231 224.9399 292.9569 225.3688 294.0749 227.6059 297.1701 231.9058 303.7068 233.7109 307.061 232.6788 307.3178 231.9058 307.749 231.7337 308.4369 230.7869 311.1891 234.7427 318.8418 236.7207 319.6159 239.0428 320.5619 242.3109 318.0679 242.0527 316.4338 241.795 314.886 239.6449 310.415 238.3549 308.4369 238.3549 308.264 241.1067 308.6079 244.9769 308.264" fill="#231f20" fill-rule="evenodd"/>
<path transform="matrix(1,0,0,-1,0,841.8898)" d="M270.777 310.5867C274.303 310.5867 277.2269 310.415 277.6558 309.9838 278.6029 308.7802 277.8279 307.1469 276.4519 307.2328 275.851 307.4902 272.7547 307.6628 269.3149 307.6628 268.7128 306.5451 268.1969 305.426 267.7669 304.395 263.1217 293.8158 258.2209 279.7988 262.4349 281.52 265.5309 282.8089 276.5378 296.1388 279.0317 299.579 280.1509 301.0411 282.2139 300.439 281.0968 298.2889 279.29 294.4191 269.0569 280.4009 264.5847 278.2508 261.489 276.789 253.7487 279.197 253.0607 283.9269 252.4589 287.9688 254.6949 295.1918 260.9728 307.5758 259.0809 307.4902 257.6177 307.4899 257.1888 307.4899 255.4688 307.4902 255.7267 309.8988 257.5318 310.5867 258.0489 310.415 260.0269 310.415 262.4349 310.5009 267.681 320.648 270.2608 324.3458 270.7767 326.4959 273.5289 327.4418 277.4849 324.3458 277.0549 322.454 276.624 320.648 273.6139 315.919 270.777 310.5867" fill="#231f20" fill-rule="evenodd"/>
<path transform="matrix(1,0,0,-1,0,841.8898)" d="M288.3197 314.9722C285.7388 315.4878 285.3958 318.5838 287.9759 320.3898 290.2969 322.024 293.9088 322.196 295.9727 320.648 297.6939 319.1 295.4568 316.262 293.6517 315.574 291.7587 314.886 290.7278 314.5428 288.3197 314.9722ZM289.2648 305.083C289.0069 303.105 287.2009 301.47 284.3637 295.9659 279.5468 286.6791 278.6017 281.003 281.1818 281.433 284.9649 282.0351 295.4568 294.935 298.2087 299.3199 299.6711 301.2982 301.4768 299.8369 300.7888 298.2889 297.8651 292.699 290.3828 282.2068 284.9649 278.9399 280.6648 276.359 275.9357 279.0249 274.0428 281.3468 272.238 283.5831 271.8938 288.1409 275.7637 296.1388 279.1168 303.105 282.1269 306.4589 282.3857 308.7799 283.4169 310.1559 289.6098 307.9199 289.2648 305.083" fill="#231f20" fill-rule="evenodd"/>
<path transform="matrix(1,0,0,-1,0,841.8898)" d="M301.6491 290.8069C301.6491 290.8069 314.2037 307.8349 320.8258 309.8988 324.3529 311.0162 330.0287 307.8349 328.5669 303.6209 326.0718 296.6547 316.7838 280.9168 320.8258 281.3468 323.3211 281.6059 332.5229 291.4089 337.6817 299.4069 339.0579 300.6102 340.1759 299.3199 339.7459 297.8578 335.7899 290.5489 329.0817 282.4648 324.4388 279.197 319.8798 276.016 312.2269 279.627 312.4848 284.701 312.914 292.9569 322.5458 305.083 320.9119 305.2539 317.3 305.598 298.9828 281.9489 298.0358 279.3688 295.973 277.3919 289.3507 280.3158 290.1249 282.7227 290.899 285.1311 301.3047 305.426 302.1639 309.4679 304.1427 310.8438 308.8718 308.3499 308.6138 306.2869 308.2711 303.3621 301.6488 290.8069 301.6491 290.8069" fill="#231f20" fill-rule="evenodd"/>
<path transform="matrix(1,0,0,-1,0,841.8898)" d="M353.0758 294.7629C353.4199 295.6229 354.0229 296.6547 354.8818 298.2889 355.6559 299.8369 357.2039 300.1808 358.6657 299.922 359.1819 301.47 363.0518 307.1469 361.3317 308.8658 358.0648 312.048 348.2597 302.1588 344.8208 296.6547 339.7459 288.6571 337.3387 281.863 338.8008 281.7768 340.3491 281.6909 348.5188 288.743 353.0758 294.7629ZM342.5839 272.232C339.4029 271.027 336.6507 269.909 334.5868 268.9628 319.193 261.9111 326.7609 260.5348 328.3089 260.621 329.7708 260.7069 334.5868 261.739 339.7459 268.2748 340.7791 269.6511 341.7248 270.9408 342.5839 272.232ZM355.9139 281.7768C357.978 282.8959 359.9558 284.1849 361.6758 285.647 368.212 290.9789 371.8239 297.4289 373.8878 299.8369 375.522 301.6431 376.9838 300.439 376.3817 298.546 374.9199 296.225 370.6197 288.2268 362.7938 282.1209 360.214 280.1441 356.9468 278.4229 353.4199 276.789 348.0018 266.47 340.3488 257.0958 332.0067 257.01 324.9539 256.9241 320.9987 261.0519 321.3428 263.8899 321.7731 267.243 328.2228 270.2529 333.3827 272.4888 336.9078 274.0368 341.2077 275.4128 345.5079 277.1328 347.315 280.4871 348.6047 283.6689 349.8948 286.8508 347.2288 283.4969 344.0458 280.4009 340.6929 278.5949 337.5969 276.961 333.0377 281.0889 332.0929 284.0128 331.0611 287.1091 333.0377 293.0428 336.9937 299.4069 340.6068 305.2542 344.7349 309.382 348.4329 311.4459 358.151 316.9502 366.7499 308.7799 366.5778 305.426 366.406 302.5029 362.2788 300.0937 359.9558 299.579 361.59 298.891 362.9659 297.6868 363.0518 296.913 362.107 296.225 361.7617 296.1388 356.7747 283.841 356.43 283.153 356.1718 282.4648 355.9139 281.7768" fill="#231f20" fill-rule="evenodd"/>
<path transform="matrix(1,0,0,-1,0,841.8898)" d="M378.9618 294.3329C383.6061 297.256 388.5077 301.557 390.7429 304.4809 393.152 307.5761 391.2599 308.952 388.0769 306.114 385.3247 303.6209 381.4557 299.0628 378.9618 294.3329ZM377.07 289.9468C376.6399 288.5709 376.2958 287.367 376.2958 286.1629 376.2099 283.7548 376.7258 281.0889 379.5639 280.8309 387.218 280.1441 397.7949 294.935 401.5789 299.6649 402.5259 300.6961 404.934 300.6958 404.1587 298.8048 401.4071 293.3011 393.6668 282.0348 386.2718 278.2508 380.2518 275.1551 371.7377 278.9399 369.5017 284.8728 366.1481 293.7311 376.2099 308.5228 383.5199 311.7909 389.884 314.6289 397.7949 308.264 396.7639 303.535 395.818 299.1489 384.0347 292.8708 377.07 289.9468" fill="#231f20" fill-rule="evenodd"/>
<path transform="matrix(1,0,0,-1,0,841.8898)" d="M417.3171 308.264C420.069 308.0061 423.8527 305.426 421.0149 301.8149 416.7147 296.1391 411.2969 280.8309 413.3608 280.0568 415.5111 279.2829 421.7017 285.5608 424.6257 290.033 425.2289 290.5489 426.2607 290.8069 426.4328 289.0868 425.143 285.2169 422.1329 279.627 417.8327 276.4449 414.307 273.7789 405.8787 279.0249 405.1908 284.0128 404.0728 290.4619 410.9528 300.869 412.7587 304.1359 413.6179 305.598 411.8987 306.0278 409.7489 306.373 407.9429 303.105 403.5569 297.4289 400.5468 293.0428 399.515 292.0969 397.2798 292.9569 397.7087 294.0749 399.9458 297.1701 404.2449 303.7068 406.0508 307.061 405.019 307.3178 404.2449 307.749 404.0728 308.4369 403.1269 311.1891 407.0829 318.8418 409.0609 319.6159 411.3828 320.5619 414.6508 318.0679 414.3929 316.4338 414.1349 314.886 411.9849 310.415 410.6948 308.4369 410.6951 308.264 413.4467 308.6079 417.3171 308.264" fill="#231f20" fill-rule="evenodd"/>
<path transform="matrix(1,0,0,-1,0,841.8898)" d="M239.2308 166.019C238.6057 169.266 238.1068 171.6389 237.8307 173.2368H237.7559C237.5569 171.6888 237.0067 169.1408 236.3828 166.019ZM235.859 163.3961 235.0089 159.1489H231.9868L235.908 176.0598H239.8289L243.777 159.1489H240.6039L239.7798 163.3961Z" fill="#231f20" fill-rule="evenodd"/>
<path transform="matrix(1,0,0,-1,0,841.8898)" d="M245.2459 159.1489V176.0598H248.6679C252.165 166.718 252.8399 164.92 253.0389 164.0948L253.065 164.0951C252.94 166.1179 252.9147 168.6158 252.9147 171.3889V176.0598H255.638V159.1489H252.3399C248.7178 169.1158 248.0939 170.9138 247.8688 171.6888H247.8438C247.9689 169.5909 247.9689 167.1168 247.9689 164.0699V159.1489Z" fill="#231f20" fill-rule="evenodd"/>
<path transform="matrix(1,0,0,-1,0,841.8898)" d="M258.5809 159.1489V176.0598H262.0029C265.5 166.718 266.1749 164.92 266.3739 164.0948L266.4 164.0951C266.275 166.1179 266.2498 168.6158 266.2498 171.3889V176.0598H268.973V159.1489H265.6749C262.0528 169.1158 261.4289 170.9138 261.2038 171.6888H261.1789C261.3039 169.5909 261.3039 167.1168 261.3039 164.0699V159.1489Z" fill="#231f20" fill-rule="evenodd"/>
<path transform="matrix(1,0,0,-1,0,841.8898)" d="M274.4388 167.792C274.4388 163.7711 275.0627 161.3979 276.8357 161.3979 278.7089 161.3979 279.2339 163.5959 279.2339 167.7917 279.2339 171.714 278.6587 173.7618 276.8357 173.7618 275.0128 173.7621 274.4388 171.5638 274.4388 167.792ZM282.331 167.7169C282.331 161.5479 280.6569 158.8499 276.7609 158.8499 273.1139 158.8499 271.3408 161.4969 271.3408 167.7668 271.3408 173.8619 273.4138 176.3099 276.8859 176.3099 280.5829 176.3099 282.3307 173.5869 282.331 167.7169" fill="#231f20" fill-rule="evenodd"/>
<path transform="matrix(1,0,0,-1,0,841.8898)" d="M290.1949 159.1489V172.1631C289.7949 172.1129 288.87 172.0879 288.3957 172.139L288.396 174.3868C289.5698 174.562 290.6688 175.11 291.1938 175.6358L293.167 175.6361V159.1489Z" fill="#231f20" fill-rule="evenodd"/>
<path transform="matrix(1,0,0,-1,0,841.8898)" d="M298.4598 170.5649C298.4598 168.6909 299.0339 167.7419 300.2828 167.7419 301.4067 167.7419 302.0068 168.5409 302.0068 170.3149 302.0071 172.0879 301.7327 173.3618 300.2338 173.3618 298.9851 173.3618 298.4598 172.338 298.4598 170.5649ZM298.535 162.8209C298.6347 162.197 298.8598 161.2729 300.0838 161.2729 302.0321 161.2729 301.9827 165.02 302.0068 166.593 301.483 165.6689 300.5589 165.369 299.4849 165.369 297.112 165.369 295.4877 166.9929 295.4877 170.265 295.488 173.6371 297.0859 175.7849 300.2088 175.7849 303.5058 175.7849 304.9537 173.7369 304.9537 168.6909 304.954 161.447 303.6807 158.8989 299.9089 158.8989 295.8627 158.8989 295.7128 162.2718 295.6618 162.8209Z" fill="#231f20" fill-rule="evenodd"/>
<path transform="matrix(1,0,0,-1,0,841.8898)" d="M312.4689 168.8409C312.4689 170.6139 312.5188 171.9388 312.5687 173.287 312.0199 171.5389 310.4209 167.7917 309.4209 165.4688L312.4689 165.469ZM312.4689 159.1489V163.046H306.6738V165.494L311.3949 175.585H315.2171V165.469H316.715L316.4658 163.046H315.2171V159.1489Z" fill="#231f20" fill-rule="evenodd"/>
<path transform="matrix(1,0,0,-1,0,841.8898)" d="M324.8048 164.569C324.8048 166.843 324.3059 167.6667 322.9818 167.6667 321.683 167.6667 321.1577 166.6928 321.1577 164.9438 321.158 162.722 321.6577 161.248 323.0067 161.248 324.2809 161.248 324.8048 162.472 324.8048 164.569ZM324.6809 171.8138C324.606 172.338 324.4808 173.4378 323.1317 173.4378 321.3079 173.4381 321.2337 170.7888 321.1838 168.7158 321.658 169.4409 322.5067 170.0898 323.8809 170.0898 326.2039 170.0901 327.7777 168.3918 327.7777 164.895 327.778 161.598 326.5288 158.925 322.9818 158.925 319.1598 158.925 318.2357 162.1219 318.2357 166.7429 318.236 172.3139 319.3347 175.7849 323.2809 175.7849 326.6291 175.7849 327.4038 173.3879 327.4778 171.8138Z" fill="#231f20" fill-rule="evenodd"/>
<path transform="matrix(1,0,0,-1,0,841.8898)" stroke-width="1.5296" stroke-linecap="butt" stroke-miterlimit="10.000001" stroke-linejoin="miter" fill="none" stroke="#231f20" d="M199.3538 167.178H227.6229"/>
<path transform="matrix(1,0,0,-1,0,841.8898)" stroke-width="1.5296" stroke-linecap="butt" stroke-miterlimit="10.000001" stroke-linejoin="miter" fill="none" stroke="#231f20" d="M333 167.1789H361.2699"/>
<path transform="matrix(1,0,0,-1,0,841.8898)" stroke-width="6.0063" stroke-linecap="butt" stroke-miterlimit="10.000001" stroke-linejoin="miter" fill="none" stroke="#231f20" d="M505.87 283.4969C505.87 160.7009 406.3226 61.1538 283.5269 61.1538 160.7298 61.1538 61.183 160.7009 61.183 283.4969 61.183 406.294 160.7298 505.8405 283.5269 505.8405 406.3229 505.8408 505.87 406.294 505.87 283.4969Z"/>
</svg>
